<?xml version="1.0" ?><svg height="60px" version="1.1" viewBox="0 0 59 60" width="59px" xmlns="http://www.w3.org/2000/svg" xmlns:xlink="http://www.w3.org/1999/xlink"><title/><desc/><g fill="none" fill-rule="evenodd" id="Page-1" stroke="none" stroke-width="1"><g id="012---santa,-christmas,-emoji,-love,-inlove,"><path d="M29.789,-1.55679054e-05 C41.2032385,-0.0133619722 50.7935279,8.57625029 52.033,19.923 C52.4400031,23.5311119 52.6573022,27.1581034 52.684,30.789 L47.158,30.789 L29.789,-1.55679054e-05 Z" fill="#D94452" id="Path"/><path d="M49.58,26.9 C49.5397403,26.8983562 49.4994323,26.9017152 49.46,26.91 C49.3148216,26.9303861 49.171168,26.9604531 49.03,27 C48.8842276,27.0306801 48.740594,27.0707639 48.6,27.12 C48.4529791,27.1628438 48.3092671,27.216318 48.17,27.28 C48.14,27.29 48.12,27.3 48.09,27.31 C47.3749755,25.4374635 46.4022716,23.6738067 45.2,22.07 C46.3311572,21.8700857 47.1567152,20.8886825 47.16,19.74 L47.16,16.58 C47.1602654,15.9513556 46.9106549,15.3483826 46.4661362,14.9038638 C46.0216174,14.4593451 45.4186444,14.2097346 44.79,14.21 L43.95,14.21 C43.3721277,6.6532782 37.3754792,0.64389795 29.82,0.05 L29.79,0 L29.89,0 C30.21,0 30.53,0.01 30.86,0.02 C31.46,0.05 32.06,0.11 32.66,0.19 C39.6971104,1.30429067 45.0476549,7.10588656 45.59,14.21 L46.44,14.21 C47.0686444,14.2097346 47.6716174,14.4593451 48.1161362,14.9038638 C48.5606549,15.3483826 48.8102654,15.9513556 48.81,16.58 L48.81,19.74 C48.8096134,20.8877424 47.9815517,21.867897 46.85,22.06 C47.9636052,23.5497069 48.8811219,25.1763665 49.58,26.9 Z" fill="#C93A4C" id="Path"/><circle cx="50.316" cy="32.368" fill="#E4E8EB" id="Oval" r="5.526"/><path d="M51.689,35.282 C51.6883247,36.107464 51.6435944,36.9323038 51.555,37.753 C51.1489212,37.8483192 50.7331148,37.8959742 50.316,37.895 C50.0191672,37.8966727 49.7228434,37.8702212 49.431,37.816 C49.5265145,36.9747237 49.573925,36.1286806 49.573,35.282 C49.5787068,32.5548251 49.0754252,29.8505344 48.089,27.308 C48.7023334,27.0373864 49.3611527,26.8847248 50.031,26.858 C51.1283643,29.5308183 51.6916323,32.3926819 51.689,35.282 Z" fill="#D1D8DB" id="Path"/><path d="M49.571,35.285 C49.5794185,41.1575471 47.2486969,46.7916537 43.094,50.942 C43.094,50.9464183 43.0904183,50.95 43.086,50.95 C37.0754637,56.9575044 28.1579847,58.9970279 20.1336321,56.1994537 C12.1092795,53.4018794 6.39263125,46.2603796 5.41976351,37.8182125 C4.44689578,29.3760455 8.38931118,21.1214438 15.567,16.572 L15.575,16.564 C22.3994229,12.2472845 31.0319339,11.9852713 38.1055944,15.8801536 C45.1792548,19.7750359 49.5737137,27.2099286 49.575,35.285 L49.571,35.285 Z" fill="#FDCD56" id="Path"/><path d="M43.086,50.95 C37.0754637,56.9575044 28.1579847,58.9970279 20.1336321,56.1994537 C12.1092795,53.4018794 6.39263125,46.2603796 5.41976351,37.8182125 C4.44689578,29.3760455 8.38931118,21.1214438 15.567,16.572 C7.59615455,24.5582569 6.90073471,37.2592592 13.9519999,46.0680239 C21.0032651,54.8767886 33.5483799,56.9789699 43.086,50.95 Z" fill="#F5B945" id="Path"/><path d="M27.143,-6.93753547e-16 L28.6,-6.93753547e-16 C32.6847406,-0.00132686077 36.6025618,1.62074239 39.4909097,4.50909029 C42.3792576,7.3974382 44.0013269,11.3152594 44,15.4 L44.0000008,19.742 L10.842,19.742 L10.842,16.3 C10.842,11.9767979 12.5594538,7.83067762 15.616513,4.7738059 C18.6735723,1.71693418 22.819798,-0.00026522712 27.143,-6.93753547e-16 Z" fill="#EB5463" id="Path"/><path d="M29.845,0.055 C21.3502213,0.698931299 14.7870759,7.78085079 14.79,16.3 L14.79,19.734 L10.842,19.734 L10.842,16.3 C10.8419999,11.9764514 12.5597282,7.8300279 15.6172201,4.77309868 C18.6747119,1.71616946 22.8214515,-0.000795745144 27.145,8.8817842e-16 L28.605,8.8817842e-16 C29.024,8.8817842e-16 29.442,0.016 29.845,0.055 Z" fill="#D94452" id="Path"/><rect fill="#E4E8EB" height="7.895" id="Rectangle" rx="2.368" width="39.474" x="7.684" y="14.211"/><path d="M12.421,22.1050034 L10.053,22.105 C9.42455007,22.1060634 8.82151927,21.8569519 8.37704362,21.4126639 C7.93256798,20.9683759 7.68320191,20.3654503 7.684,19.737 L7.684,16.579 C7.68320191,15.9505497 7.93256798,15.3476241 8.37704362,14.9033361 C8.82151927,14.4590481 9.42455007,14.2099366 10.053,14.211 L12.421,14.2109966 C11.7927232,14.2102025 11.1899497,14.4594314 10.7456906,14.9036906 C10.3014314,15.3479497 10.0522025,15.9507232 10.053,16.579 L10.053,19.737 C10.0522025,20.3652768 10.3014314,20.9680503 10.7456906,21.4123094 C11.1899497,21.8565686 11.7927232,22.1057975 12.421,22.1050034 Z" fill="#CAD0D7" id="Path"/><path d="M52.684,40.658 C52.6854524,37.6299002 50.4015834,35.0888527 47.3904868,34.7684029 C44.3793903,34.4479531 41.6118809,36.4514179 40.976,39.412 C39.3867483,40.0977756 37.944986,41.0841909 36.73,42.317 C36.2458799,42.802271 35.7967552,43.3212374 35.386,43.87 C33.602,45.654 30.442,45.789 27.421,45.789 C24.4,45.789 21.24,45.654 19.457,43.87 C19.0456002,43.321465 18.5961598,42.80252 18.112,42.317 C16.8974685,41.0836474 15.4555937,40.0971551 13.866,39.412 C13.3343896,36.9440191 11.2961598,35.0847139 8.78985263,34.7814586 C6.28354546,34.4782033 3.86068692,35.7977308 2.75579931,38.0677006 C1.65091169,40.3376703 2.10713131,43.0585636 3.892,44.844 C3.286,47.365 4.566,50.865 7.37,53.669 C10.221,56.521 13.792,57.795 16.321,57.113 C18.462,58.833 22.63,60 27.421,60 C32.212,60 36.38,58.833 38.521,57.113 C41.05,57.795 44.621,56.521 47.472,53.669 C50.272,50.869 51.556,47.369 50.95,44.844 C52.0620935,43.7350642 52.6861675,42.228505 52.684,40.658 Z" fill="#F4F6F8" id="Path"/><path d="M49.053,50.589 C49.6385324,50.007141 50.171909,49.375053 50.647,48.7 C49.9874706,50.5804124 48.9014327,52.2825448 47.474,53.673 C44.624,56.523 41.047,57.802 38.521,57.115 C36.382,58.831 32.213,60 27.421,60 C22.629,60 18.461,58.831 16.321,57.11 C13.795,57.797 10.221,56.518 7.369,53.668 C4.569,50.868 3.287,47.368 3.895,44.842 C1.60245173,42.5603196 1.57435145,38.8582181 3.832,36.542 C3.76806675,36.8829373 3.73626072,37.2291208 3.737,37.576 C3.73393727,39.1466856 4.35941626,40.6533086 5.474,41.76 C4.866,44.286 6.145,47.784 8.947,50.586 C11.797,53.436 15.374,54.715 17.9,54.028 C20.04,55.75 24.208,56.918 29,56.918 C33.792,56.918 37.961,55.75 40.1,54.028 C42.626,54.718 46.2,53.439 49.053,50.589 Z" fill="#E4E8EB" id="Path"/><path d="M39,31.655 C38.8744434,31.6549885 38.7499874,31.6315894 38.633,31.586 L38.42,31.5 C36.9265156,30.839618 35.2344666,30.787246 33.703,31.354 C33.3707255,31.494645 32.9884515,31.4453866 32.702685,31.2251031 C32.4169184,31.0048196 32.2719789,30.6476749 32.3234148,30.290545 C32.3748506,29.9334152 32.6146846,29.6316878 32.951,29.501 C34.9567475,28.7376588 37.181203,28.7871709 39.151,29.639 L39.365,29.723 C39.8139068,29.8975769 40.0745828,30.367357 39.985168,30.8406428 C39.8957533,31.3139285 39.4816564,31.6562283 39,31.655 Z" fill="#424852" id="Path"/><path d="M17.309,31.453 C16.8336046,31.4535149 16.4235604,31.1192696 16.3282294,30.6535304 C16.2328984,30.1877912 16.4786357,29.7193156 16.916,29.533 L17.131,29.441 C19.091162,28.5102981 21.34505,28.414672 23.377,29.176 C23.7080066,29.3106891 23.9420135,29.6117369 23.9908725,29.9657416 C24.0397316,30.3197462 23.89602,30.6729261 23.6138725,30.8922416 C23.3317251,31.1115571 22.9540066,31.1636891 22.623,31.029 C21.0843879,30.4736421 19.3865225,30.5645412 17.916,31.281 L17.701,31.373 C17.5771479,31.4260935 17.4437522,31.4533171 17.309,31.453 Z" fill="#424852" id="Path"/><path d="M44,28.008 C43.890076,28.0081307 43.7809039,27.989879 43.677,27.954 L34.869,24.946 C34.523905,24.8359435 34.2653029,24.5478763 34.1929769,24.192951 C34.1206509,23.8380258 34.2459096,23.4717362 34.520421,23.2354176 C34.7949323,22.9990989 35.1757756,22.9297005 35.516,23.054 L44.323,26.062 C44.7852641,26.2204033 45.065351,26.6896863 44.9853387,27.171742 C44.9053263,27.6537977 44.4886505,28.0074309 44,28.008 Z" fill="#E4E8EB" id="Path"/><path d="M13,28.008 C12.5113495,28.0074309 12.0946737,27.6537977 12.0146613,27.171742 C11.934649,26.6896863 12.2147359,26.2204033 12.677,26.062 L21.484,23.054 C21.8242244,22.9297005 22.2050677,22.9990989 22.479579,23.2354176 C22.7540904,23.4717362 22.8793491,23.8380258 22.8070231,24.192951 C22.7346971,24.5478763 22.476095,24.8359435 22.131,24.946 L13.323,27.954 C13.2189747,27.9893993 13.1098828,28.0076376 13,28.008 Z" fill="#E4E8EB" id="Path"/><path d="M30,2.2 C30,2.2 36.2,5.16 37.852,8 C37.5497226,6.48773222 36.8266597,5.09152065 35.766,3.972 C33.9,1.842 30,2.2 30,2.2 Z" fill="#F77286" id="Path"/><path d="M31.421,41.738 C31.421,41.738 29.421,43.648 27.421,43.648 C25.421,43.648 23.421,41.738 23.421,41.738 C23.8192973,40.0956916 25.3106895,38.9547495 27,39 C28.8498888,39.0805996 30.524619,40.1177883 31.421,41.738 Z" fill="#424852" id="Path"/><path d="M29.125,41.753 L32.617,42.732 C35.7804075,43.5772676 39.1288014,42.2939856 40.917,39.551 L41.08,39.314 C42.2147458,37.6128211 42.6542277,35.5413868 42.308,33.526 C41.3898,34.4127595 40.2752456,35.0702541 39.055,35.445 C37.85234,35.8194212 36.5756764,35.8901943 35.339,35.651 L31.098,34.851 C29.2114181,34.3593578 27.2818951,35.4833865 26.779,37.367 C26.5036812,38.259727 26.5966867,39.2254731 27.0373124,40.0492515 C27.4779381,40.87303 28.2296111,41.4864655 29.125,41.753 Z" fill="#F4F6F8" id="Path"/><path d="M27.005,39.968 C27.42167,40.8418634 28.1963093,41.4925021 29.129,41.752 L32.618,42.731 C35.7818358,43.5800259 39.1325715,42.2954426 40.918,39.549 L41.084,39.312 C42.2182828,37.6114046 42.6564244,35.5402548 42.308,33.526 C41.8243326,33.9861043 41.2891159,34.3887752 40.713,34.726 C40.5228384,35.80228 40.1096581,36.8268853 39.5,37.734 L39.335,37.97 C37.5491554,40.7159283 34.1988014,42.0003652 31.035,41.152 L27.546,40.173 C27.3598176,40.1212309 27.1787365,40.0526142 27.005,39.968 Z" fill="#E4E8EB" id="Path"/><path d="M25.715,41.753 L22.223,42.732 C19.0596098,43.5769388 15.7114056,42.2937295 13.923,39.551 L13.761,39.314 C12.6259064,37.6129604 12.1860643,35.5415153 12.532,33.526 C13.4502,34.4127595 14.5647544,35.0702541 15.785,35.445 C16.9876675,35.81938 18.2643208,35.8901525 19.501,35.651 L23.742,34.851 C25.6285819,34.3593578 27.5581049,35.4833865 28.061,37.367 C28.3363188,38.259727 28.2433133,39.2254731 27.8026876,40.0492515 C27.3620619,40.87303 26.6103889,41.4864655 25.715,41.753 Z" fill="#F4F6F8" id="Path"/><path d="M27.838,39.968 C27.42133,40.8418634 26.6466907,41.4925021 25.714,41.752 L22.225,42.731 C19.0611986,43.5793652 15.7108446,42.2949283 13.925,39.549 L13.76,39.312 C12.6257172,37.6114046 12.1875756,35.5402548 12.536,33.526 C13.01947,33.9863374 13.5547149,34.3890294 14.131,34.726 C14.3196417,35.8018947 14.7311085,36.8264742 15.339,37.734 L15.504,37.97 C17.2898446,40.7159283 20.6401986,42.0003652 23.804,41.152 L27.293,40.173 C27.4805485,40.1214616 27.6629783,40.0528412 27.838,39.968 Z" fill="#E4E8EB" id="Path"/><path d="M8.348,8.822 L4.5,12.667 L0.657,8.822 C-0.216113748,7.94686561 -0.216113748,6.53013439 0.657,5.655 C1.53371493,4.78571666 2.94728507,4.78571666 3.824,5.655 L4.503,6.334 L5.181,5.655 C6.05613439,4.78188625 7.47286561,4.78188625 8.348,5.655 C9.21728334,6.53171493 9.21728334,7.94528507 8.348,8.822 Z" fill="#EB5463" id="Path"/><path d="M5.309,11.864 L4.503,12.671 L0.657,8.819 C0.0176783205,8.1799406 -0.173516539,7.21858588 0.172633173,6.38353528 C0.518782885,5.54848468 1.33404829,5.00433334 2.238,5.005 C2.28710406,5.00383892 2.33622845,5.00617818 2.385,5.012 C2.22815886,5.10352217 2.08393972,5.21513232 1.956,5.344 C1.08605543,6.22083249 1.08605543,7.63516751 1.956,8.512 L5.309,11.864 Z" fill="#D94452" id="Path"/><path d="M12.131,20.988 L7,26 L1.876,20.988 C1.31805521,20.4470655 1.00313481,19.7031181 1.00313481,18.926 C1.00313481,18.1488819 1.31805521,17.4049345 1.876,16.864 C2.44069119,16.3139793 3.19974068,16.0092095 3.988,16.016 C4.77593452,16.0093651 5.53461588,16.3141315 6.099,16.864 L6.999,17.748 L7.904,16.864 C9.0816244,15.7268509 10.9483756,15.7268509 12.126,16.864 C12.6816431,17.4061813 12.994957,18.1496626 12.994957,18.926 C12.994957,19.7023374 12.6816431,20.4458187 12.126,20.988 L12.131,20.988 Z" fill="#EB5463" id="Path"/><path d="M8.079,24.95 L7,26 L1.877,20.984 C1.31692107,20.4458671 1.00035986,19.7027081 1.00035986,18.926 C1.00035986,18.1492919 1.31692107,17.4061329 1.877,16.868 C2.43944845,16.3175381 3.19703667,16.0122736 3.984,16.019 C4.05076816,16.0175056 4.11756452,16.0201775 4.184,16.027 C3.97560411,16.1462831 3.78336894,16.2918037 3.612,16.46 C3.0558474,17.0019058 2.74217819,17.7454901 2.74217819,18.522 C2.74217819,19.2985099 3.0558474,20.0420942 3.612,20.584 L8.079,24.95 Z" fill="#D94452" id="Path"/><path d="M55.348,6.151 L51.5,10 L47.657,6.151 C46.7838863,5.27586561 46.7838863,3.85913439 47.657,2.984 C48.5341622,2.11580364 49.9468378,2.11580364 50.824,2.984 L51.503,3.663 L52.181,2.984 C53.0561344,2.11088625 54.4728656,2.11088625 55.348,2.984 C56.2172833,3.86071493 56.2172833,5.27428507 55.348,6.151 Z" fill="#EB5463" id="Path"/><path d="M52.309,9.194 L51.5,10 L47.657,6.148 C47.2365553,5.72950053 47.0001878,5.16072468 47.0001878,4.5675 C47.0001878,3.97427532 47.2365553,3.40549947 47.657,2.987 C48.0748927,2.56592388 48.6447693,2.33090837 49.238,2.335 C49.2870766,2.33399154 49.3361688,2.33599531 49.385,2.341 C49.2283587,2.43321334 49.0841839,2.54512531 48.956,2.674 C48.0861719,3.55049059 48.0861719,4.96450941 48.956,5.841 L52.309,9.194 Z" fill="#D94452" id="Path"/><path d="M58.131,16.572 L53,21.58 L47.872,16.572 C47.3140552,16.0310655 46.9991348,15.2871181 46.9991348,14.51 C46.9991348,13.7328819 47.3140552,12.9889345 47.872,12.448 C49.0526657,11.3174397 50.9143343,11.3174397 52.095,12.448 L53,13.332 L53.905,12.448 C55.0826244,11.3108509 56.9493756,11.3108509 58.127,12.448 C58.6826431,12.9901813 58.995957,13.7336626 58.995957,14.51 C58.995957,15.2863374 58.6826431,16.0298187 58.127,16.572 L58.131,16.572 Z" fill="#EB5463" id="Path"/><path d="M54.079,20.534 L53,21.584 L47.873,16.568 C47.3129211,16.0298671 46.9963599,15.2867081 46.9963599,14.51 C46.9963599,13.7332919 47.3129211,12.9901329 47.873,12.452 C48.4353473,11.9012654 49.192915,11.5956496 49.98,11.602 C50.0467682,11.6005056 50.1135645,11.6031775 50.18,11.61 C49.9715774,11.7296393 49.7793452,11.8754938 49.608,12.044 C49.0518474,12.5859058 48.7381782,13.3294901 48.7381782,14.106 C48.7381782,14.8825099 49.0518474,15.6260942 49.608,16.168 L54.079,20.534 Z" fill="#D94452" id="Path"/><path d="M55.819,30.228 L49.914,35.995 L44.009,30.228 C43.3661744,29.6052615 43.0033012,28.7485017 43.0033012,27.8535 C43.0033012,26.9584983 43.3661744,26.1017385 44.009,25.479 C45.3682495,24.1762374 47.5127505,24.1762374 48.872,25.479 L49.914,26.5 L50.956,25.482 C52.3123333,24.1720004 54.4626667,24.1720004 55.819,25.482 C56.4590099,26.1062644 56.8199174,26.9624537 56.8199174,27.8565 C56.8199174,28.7505463 56.4590099,29.6067356 55.819,30.231 L55.819,30.228 Z" fill="#EB5463" id="Path"/><path d="M51.152,34.791 L49.914,36 L44.014,30.224 C43.3685739,29.6045233 43.0037143,28.7486095 43.0037143,27.854 C43.0037143,26.9593905 43.3685739,26.1034767 44.014,25.484 C44.6613318,24.8496107 45.5336705,24.4975828 46.44,24.505 C46.5154455,24.5034856 46.5909139,24.506491 46.666,24.514 C46.4261438,24.6517768 46.2049974,24.8198211 46.008,25.014 C45.3674225,25.6381618 45.0061372,26.4946189 45.0061372,27.389 C45.0061372,28.2833811 45.3674225,29.1398382 46.008,29.764 L51.152,34.791 Z" fill="#D94452" id="Path"/></g></g></svg>